# xmcd
#
# Track frame offsets: 
#        150
#        16898
#        34347
#        47109
#        59908
#        72096
#        86257
#        102378
#        111529
#        129238
#        143994
#        155283
#        170073
#        186774
#
# Disc length: 2654 seconds
#
# Revision: 0
# Processed by: cddbd v1.5.2PL0 Copyright (c) Steve Scherf et al.
# Submitted via: ExactAudioCopy v1.0b1
#
DISCID=c70a5c0e
DTITLE=Hugh Dillon - Works Well With Others
DYEAR=2009
DGENRE=Alternative
TTITLE0=Friends Of Mine
TTITLE1=Sentimental Me
TTITLE2=Well On Your Way
TTITLE3=Ten Feet Tall
TTITLE4=Surface Of The Sun
TTITLE5=Reel To Reel
TTITLE6=Lucky
TTITLE7=Lost At Sea
TTITLE8=Radio Plays
TTITLE9=Bottom Of A Dream
TTITLE10=My Mistakes
TTITLE11=Ignore That Call
TTITLE12=Puzzle I Am
TTITLE13=Don't Be Fooled
EXTD=
EXTT0=
EXTT1=
EXTT2=
EXTT3=
EXTT4=
EXTT5=
EXTT6=
EXTT7=
EXTT8=
EXTT9=
EXTT10=
EXTT11=
EXTT12=
EXTT13=
PLAYORDER=
